<?xml version="1.0" encoding="utf-8"?>
<!-- Generator: Adobe Illustrator 16.0.4, SVG Export Plug-In . SVG Version: 6.00 Build 0)  -->
<!DOCTYPE svg PUBLIC "-//W3C//DTD SVG 1.1//EN" "http://www.w3.org/Graphics/SVG/1.1/DTD/svg11.dtd">
<svg version="1.1" id="Layer_1" xmlns="http://www.w3.org/2000/svg" xmlns:xlink="http://www.w3.org/1999/xlink" x="0px" y="0px"
	 width="552.298px" height="792px" viewBox="0 0 552.298 792" enable-background="new 0 0 552.298 792" xml:space="preserve">
<path d="M276.158,792.5C123.882,792.5,0,668.618,0,516.342c0-2.422,0.021-243.287,0.071-245.525
	C3.114,121.798,126.976,0.5,276.158,0.5c148.703,0,272.544,120.89,276.076,269.482c0.071,2.523,0.082,243.927,0.082,246.359
	C552.316,668.618,428.435,792.5,276.158,792.5z M276.158,52.605c-121.032,0-221.519,98.405-224.003,219.355
	c-0.03,5.074-0.05,242.02-0.05,244.381c0,123.547,100.506,224.053,224.053,224.053s224.053-100.506,224.053-224.053
	c0-14.298-0.021-239.897-0.071-245.418C497.279,150.673,396.804,52.605,276.158,52.605z"/>
<g>
	<path d="M187.386,523.873V269.122h-46.65v-42.498h137.998c28.82,0,51.697,2.238,68.633,6.717
		c16.934,4.482,30.938,13.922,42.008,28.332c11.074,14.41,16.609,32.358,16.609,53.85c0,44.936-23.346,73.183-70.026,84.743
		l60.013,123.607h41.521v42.498h-73.589l-77.354-158.758h-47.871v116.26h43.475v42.498H140.735v-42.498H187.386z M238.677,365.11
		h40.057c19.375,0,33.664-1.256,42.863-3.785c9.201-2.525,16.73-7.654,22.594-15.389c5.861-7.729,8.793-18.11,8.793-31.141
		c0-11.072-2.973-20.43-8.916-28.088c-5.943-7.652-13.27-12.493-21.982-14.533c-8.711-2.035-22.021-3.053-39.934-3.053h-43.475
		V365.11z"/>
</g>
</svg>
